<mxfile host="app.diagrams.net" modified="2024-04-29T06:54:09.410Z" agent="Mozilla/5.0 (Windows NT 6.1; Win64; x64; rv:109.0) Gecko/20100101 Firefox/115.0" etag="_1js-Ueu5RVNbkWc9Dza" version="24.3.1" type="device">
  <diagram name="Page-1" id="6BZQ0C9abflXt45p2O0y">
    <mxGraphModel dx="664" dy="532" grid="1" gridSize="10" guides="1" tooltips="1" connect="1" arrows="1" fold="1" page="1" pageScale="1" pageWidth="850" pageHeight="1100" math="1" shadow="0">
      <root>
        <mxCell id="0" />
        <mxCell id="1" parent="0" />
        <mxCell id="p79O7-tDu-kAlIQLblb_-1" value="" style="endArrow=oval;html=1;rounded=0;endFill=1;endSize=10;strokeWidth=2;" edge="1" parent="1">
          <mxGeometry width="50" height="50" relative="1" as="geometry">
            <mxPoint x="200" y="200" as="sourcePoint" />
            <mxPoint x="200" y="120" as="targetPoint" />
          </mxGeometry>
        </mxCell>
        <mxCell id="p79O7-tDu-kAlIQLblb_-3" value="" style="endArrow=block;html=1;rounded=0;endSize=10;endFill=1;strokeWidth=2;" edge="1" parent="1">
          <mxGeometry width="50" height="50" relative="1" as="geometry">
            <mxPoint x="374" y="200" as="sourcePoint" />
            <mxPoint x="374" y="120" as="targetPoint" />
          </mxGeometry>
        </mxCell>
        <mxCell id="p79O7-tDu-kAlIQLblb_-4" value="" style="endArrow=none;html=1;rounded=0;strokeWidth=2;" edge="1" parent="1">
          <mxGeometry width="50" height="50" relative="1" as="geometry">
            <mxPoint x="553" y="200" as="sourcePoint" />
            <mxPoint x="553" y="120" as="targetPoint" />
          </mxGeometry>
        </mxCell>
        <mxCell id="p79O7-tDu-kAlIQLblb_-5" value="" style="endArrow=none;html=1;rounded=0;strokeWidth=2;" edge="1" parent="1">
          <mxGeometry width="50" height="50" relative="1" as="geometry">
            <mxPoint x="633" y="120" as="sourcePoint" />
            <mxPoint x="553" y="120" as="targetPoint" />
          </mxGeometry>
        </mxCell>
        <mxCell id="p79O7-tDu-kAlIQLblb_-6" value="" style="endArrow=none;html=1;rounded=0;strokeWidth=2;" edge="1" parent="1">
          <mxGeometry width="50" height="50" relative="1" as="geometry">
            <mxPoint x="633" y="200" as="sourcePoint" />
            <mxPoint x="633" y="120" as="targetPoint" />
          </mxGeometry>
        </mxCell>
        <mxCell id="p79O7-tDu-kAlIQLblb_-7" value="" style="endArrow=none;html=1;rounded=0;" edge="1" parent="1">
          <mxGeometry width="50" height="50" relative="1" as="geometry">
            <mxPoint x="90" y="200" as="sourcePoint" />
            <mxPoint x="690" y="200" as="targetPoint" />
          </mxGeometry>
        </mxCell>
        <mxCell id="p79O7-tDu-kAlIQLblb_-8" value="" style="shape=flexArrow;endArrow=classic;html=1;rounded=0;" edge="1" parent="1">
          <mxGeometry width="50" height="50" relative="1" as="geometry">
            <mxPoint x="230" y="150" as="sourcePoint" />
            <mxPoint x="310" y="150" as="targetPoint" />
          </mxGeometry>
        </mxCell>
        <mxCell id="p79O7-tDu-kAlIQLblb_-9" value="" style="shape=flexArrow;endArrow=classic;html=1;rounded=0;" edge="1" parent="1">
          <mxGeometry width="50" height="50" relative="1" as="geometry">
            <mxPoint x="443" y="150" as="sourcePoint" />
            <mxPoint x="523" y="150" as="targetPoint" />
          </mxGeometry>
        </mxCell>
        <mxCell id="p79O7-tDu-kAlIQLblb_-10" value="&lt;font style=&quot;font-size: 14px;&quot;&gt;&lt;b&gt;convert to impulse&lt;/b&gt;&lt;/font&gt;" style="text;html=1;align=center;verticalAlign=middle;whiteSpace=wrap;rounded=0;" vertex="1" parent="1">
          <mxGeometry x="208" y="110" width="110" height="30" as="geometry" />
        </mxCell>
        <mxCell id="p79O7-tDu-kAlIQLblb_-11" value="&lt;font style=&quot;font-size: 15px;&quot;&gt;&lt;b&gt;*hold&lt;/b&gt;&lt;/font&gt;" style="text;html=1;align=center;verticalAlign=middle;whiteSpace=wrap;rounded=0;" vertex="1" parent="1">
          <mxGeometry x="423" y="110" width="110" height="30" as="geometry" />
        </mxCell>
        <mxCell id="p79O7-tDu-kAlIQLblb_-12" value="&lt;font style=&quot;font-size: 14px;&quot;&gt;$$\frac{1}{T_c}X(e^{j\omega})$$&lt;/font&gt;" style="text;html=1;align=center;verticalAlign=middle;whiteSpace=wrap;rounded=0;" vertex="1" parent="1">
          <mxGeometry x="180" y="270" width="60" height="30" as="geometry" />
        </mxCell>
        <mxCell id="p79O7-tDu-kAlIQLblb_-13" value="&lt;font style=&quot;font-size: 14px;&quot;&gt;$$X(j\Omega)\cdot \frac{1}{T_c}$$&lt;/font&gt;" style="text;html=1;align=center;verticalAlign=middle;whiteSpace=wrap;rounded=0;" vertex="1" parent="1">
          <mxGeometry x="330" y="230" width="60" height="30" as="geometry" />
        </mxCell>
        <mxCell id="p79O7-tDu-kAlIQLblb_-14" value="&lt;font style=&quot;font-size: 14px;&quot;&gt;$$X(j\Omega)\cdot \frac{1}{T_c} \cdot \frac{(1-m)T_c\sin(\pi f(1-m)T_c)}{\pi f(1-m)T_c}$$&lt;/font&gt;" style="text;html=1;align=center;verticalAlign=middle;whiteSpace=wrap;rounded=0;" vertex="1" parent="1">
          <mxGeometry x="540" y="230" width="60" height="30" as="geometry" />
        </mxCell>
        <mxCell id="p79O7-tDu-kAlIQLblb_-15" value="" style="endArrow=classic;startArrow=classic;html=1;rounded=0;dashed=1;strokeColor=#737373;" edge="1" parent="1">
          <mxGeometry width="50" height="50" relative="1" as="geometry">
            <mxPoint x="553" y="170" as="sourcePoint" />
            <mxPoint x="633" y="170" as="targetPoint" />
          </mxGeometry>
        </mxCell>
        <mxCell id="p79O7-tDu-kAlIQLblb_-16" value="$$(1-m)T_c$$" style="text;html=1;align=center;verticalAlign=middle;whiteSpace=wrap;rounded=0;" vertex="1" parent="1">
          <mxGeometry x="562" y="146" width="60" height="30" as="geometry" />
        </mxCell>
        <mxCell id="p79O7-tDu-kAlIQLblb_-17" value="&lt;font style=&quot;font-size: 14px;&quot;&gt;$$X(j\Omega)$$&lt;/font&gt;" style="text;html=1;align=center;verticalAlign=middle;whiteSpace=wrap;rounded=0;" vertex="1" parent="1">
          <mxGeometry x="180" y="230" width="60" height="30" as="geometry" />
        </mxCell>
        <mxCell id="p79O7-tDu-kAlIQLblb_-18" value="" style="rounded=0;whiteSpace=wrap;html=1;" vertex="1" parent="1">
          <mxGeometry x="265" y="340" width="360" height="60" as="geometry" />
        </mxCell>
        <mxCell id="p79O7-tDu-kAlIQLblb_-19" value="" style="shape=flexArrow;endArrow=classic;html=1;rounded=0;" edge="1" parent="1">
          <mxGeometry width="50" height="50" relative="1" as="geometry">
            <mxPoint x="185" y="369.58" as="sourcePoint" />
            <mxPoint x="255" y="369.58" as="targetPoint" />
          </mxGeometry>
        </mxCell>
        <mxCell id="p79O7-tDu-kAlIQLblb_-21" value="&lt;font style=&quot;font-size: 14px;&quot;&gt;$$H(j\Omega) = \frac{1}{T_c} \cdot \frac{(1-m)T_c\sin(\pi f(1-m)T_c)}{\pi f(1-m)T_c}$$&lt;/font&gt;" style="text;html=1;align=center;verticalAlign=middle;whiteSpace=wrap;rounded=0;" vertex="1" parent="1">
          <mxGeometry x="415" y="355" width="60" height="30" as="geometry" />
        </mxCell>
        <mxCell id="p79O7-tDu-kAlIQLblb_-25" value="" style="shape=flexArrow;endArrow=classic;html=1;rounded=0;" edge="1" parent="1">
          <mxGeometry width="50" height="50" relative="1" as="geometry">
            <mxPoint x="635" y="369.58" as="sourcePoint" />
            <mxPoint x="705" y="369.58" as="targetPoint" />
          </mxGeometry>
        </mxCell>
        <mxCell id="p79O7-tDu-kAlIQLblb_-28" value="&lt;font style=&quot;font-size: 15px;&quot;&gt;$$v_s$$&lt;/font&gt;" style="text;html=1;align=center;verticalAlign=middle;whiteSpace=wrap;rounded=0;" vertex="1" parent="1">
          <mxGeometry x="158" y="339" width="60" height="30" as="geometry" />
        </mxCell>
        <mxCell id="p79O7-tDu-kAlIQLblb_-31" value="&lt;font style=&quot;font-size: 15px;&quot;&gt;$$v_h$$&lt;/font&gt;" style="text;html=1;align=center;verticalAlign=middle;whiteSpace=wrap;rounded=0;" vertex="1" parent="1">
          <mxGeometry x="680" y="340" width="60" height="30" as="geometry" />
        </mxCell>
      </root>
    </mxGraphModel>
  </diagram>
</mxfile>
